arm26_states
version=1
nRows=13
nColumns=17
inDegrees=yes

# SIMM Motion File Header:
name arm26_states
datacolumns 17
datarows 13
otherdata 1
range 0.37829778 0.39021614
endheader
time	/jointset/r_shoulder/r_shoulder_elev/value	/jointset/r_shoulder/r_shoulder_elev/speed	/jointset/r_elbow/r_elbow_flex/value	/jointset/r_elbow/r_elbow_flex/speed	/forceset/TRIlong/activation	/forceset/TRIlong/fiber_length	/forceset/TRIlat/activation	/forceset/TRIlat/fiber_length	/forceset/TRImed/activation	/forceset/TRImed/fiber_length	/forceset/BIClong/activation	/forceset/BIClong/fiber_length	/forceset/BICshort/activation	/forceset/BICshort/fiber_length	/forceset/BRA/activation	/forceset/BRA/fiber_length
      0.37829778	    -18.13793082	    -93.72295527	      9.38595069	    -95.74457317	     -0.02326371	      0.13108626	     -0.02326371	      0.07419598	     -0.02326371	      0.06920499	     -0.02326371	      0.15288128	     -0.02326371	      0.15068553	     -0.02326371	      0.09112662
      0.37917854	    -18.22039469	    -93.53301606	      9.30217055	    -94.49992800	     -0.02337711	      0.13078236	     -0.02337711	      0.07416250	     -0.02337711	      0.06917176	     -0.02337711	      0.15293727	     -0.02337711	      0.15073748	     -0.02337711	      0.09114749
      0.38005930	    -18.30268951	    -93.33880978	      9.21948437	    -93.26168763	     -0.02349051	      0.13047845	     -0.02349051	      0.07412947	     -0.02349051	      0.06913898	     -0.02349051	      0.15297843	     -0.02349051	      0.15078910	     -0.02349051	      0.09116810
      0.38094006	    -18.38481208	    -93.14198327	      9.13788911	    -92.02226295	     -0.02360391	      0.13017454	     -0.02360391	      0.07409688	     -0.02360391	      0.06910664	     -0.02360391	      0.15302758	     -0.02360391	      0.15084039	     -0.02360391	      0.09118845
      0.38216465	    -18.49870212	    -92.86211776	      9.02625269	    -90.30544046	     -0.02376157	      0.12975200	     -0.02376157	      0.07405231	     -0.02376157	      0.06906242	     -0.02376157	      0.15308912	     -0.02376157	      0.15091116	     -0.02376157	      0.09121632
      0.38307033	    -18.58271020	    -92.65151809	      8.94503969	    -89.03573599	     -0.02387818	      0.12943950	     -0.02387818	      0.07401990	     -0.02387818	      0.06903025	     -0.02387818	      0.15314366	     -0.02387818	      0.15096309	     -0.02387818	      0.09123661
      0.38397601	    -18.66652541	    -92.43444140	      8.86497320	    -87.78186159	     -0.02399479	      0.12916389	     -0.02399479	      0.07398795	     -0.02399479	      0.06899856	     -0.02399479	      0.15318542	     -0.02399479	      0.15101469	     -0.02399479	      0.09125663
      0.38488169	    -18.75013767	    -92.20394947	      8.78601918	    -86.57624511	     -0.02411139	      0.12903068	     -0.02411139	      0.07395646	     -0.02411139	      0.06896732	     -0.02411139	      0.15323407	     -0.02411139	      0.15106594	     -0.02411139	      0.09127638
      0.38611516	    -18.86366910	    -91.87734579	      8.68022368	    -84.97018216	     -0.02427020	      0.12889367	     -0.02427020	      0.07391431	     -0.02427020	      0.06892550	     -0.02427020	      0.15329418	     -0.02427020	      0.15113520	     -0.02427020	      0.09130285
      0.38707696	    -18.95191073	    -91.61608863	      8.59909680	    -83.72989257	     -0.02439403	      0.12880017	     -0.02439403	      0.07388201	     -0.02439403	      0.06889345	     -0.02439403	      0.15334912	     -0.02439403	      0.15118879	     -0.02439403	      0.09132316
      0.38803875	    -19.03989825	    -91.34871843	      8.51915744	    -82.50174434	     -0.02451786	      0.12871207	     -0.02451786	      0.07385019	     -0.02451786	      0.06886189	     -0.02451786	      0.15339223	     -0.02451786	      0.15124201	     -0.02451786	      0.09134319
      0.38900054	    -19.12762645	    -91.07707521	      8.44039713	    -81.27704765	     -0.02464169	      0.12862705	     -0.02464169	      0.07381886	     -0.02464169	      0.06883081	     -0.02464169	      0.15344254	     -0.02464169	      0.15129487	     -0.02464169	      0.09136294
      0.39021614	    -19.23812711	    -90.72644580	      8.34253337	    -79.73974637	     -0.02479820	      0.12852228	     -0.02479820	      0.07377995	     -0.02479820	      0.06879221	     -0.02479820	      0.15349908	     -0.02479820	      0.15136116	     -0.02479820	      0.09138749
